<svg width="20" height="20" viewBox="0 0 20 20" fill="none" xmlns="http://www.w3.org/2000/svg">
<mask id="mask0_943_22492" style="mask-type:alpha" maskUnits="userSpaceOnUse" x="1" y="1" width="18" height="18">
<path d="M11.7679 2.3396L17.6604 8.2321M14.125 14.125C18.03 10.2196 19.3491 5.2071 17.0708 2.92918C14.7929 0.650846 9.7804 1.97001 5.87498 5.87501C1.96998 9.78043 0.650816 14.7929 2.92915 17.0708C5.20707 19.3492 10.2196 18.03 14.125 14.125ZM8.82123 8.82168L11.1783 11.1783L8.82123 8.82168ZM10.5891 7.05376L12.9462 9.41085L10.5891 7.05376ZM7.05415 10.5892L9.41082 12.9463L7.05415 10.5892ZM5.28832 14.7167L14.7166 5.28835L5.28832 14.7167ZM2.33957 11.7679L8.23207 17.6604L2.33957 11.7679Z" stroke="white" stroke-width="1.5" stroke-linecap="round" stroke-linejoin="round"/>
</mask>
<g mask="url(#mask0_943_22492)">
<path d="M0 0H20V20H0V0Z" fill="#494949"/>
</g>
</svg>
